<svg width="24" height="24" viewBox="0 0 24 24" fill="none" xmlns="http://www.w3.org/2000/svg">
<rect width="24" height="24" rx="2" fill="#1D6FF2"/>
<path d="M18.5828 8.53033C18.8757 8.23744 18.8757 7.76256 18.5828 7.46967C18.2899 7.17678 17.815 7.17678 17.5221 7.46967L18.5828 8.53033ZM10.9814 15.0711L10.4509 15.6012L10.9812 16.1319L11.5117 15.6014L10.9814 15.0711ZM6.46111 9.48676C6.16832 9.19377 5.69344 9.19361 5.40045 9.48641C5.10746 9.7792 5.1073 10.2541 5.40009 10.5471L6.46111 9.48676ZM17.5221 7.46967L10.451 14.5407L11.5117 15.6014L18.5828 8.53033L17.5221 7.46967ZM11.5119 14.5409L6.46111 9.48676L5.40009 10.5471L10.4509 15.6012L11.5119 14.5409Z" fill="white"/>
</svg>
