<svg width="42" height="52" viewBox="0 0 42 52" fill="none" xmlns="http://www.w3.org/2000/svg">
<path fill-rule="evenodd" clip-rule="evenodd" d="M20.7085 0C31.5369 0 40.601 8.77903 41.3918 19.9524C41.6352 25.1093 40.1143 30.2048 37.0119 34.318C36.951 34.318 36.951 34.318 36.951 34.3794L24.4802 49.666C24.2977 49.9116 24.1152 50.0958 23.8719 50.2799C21.8035 52.0603 18.701 51.7533 16.9369 49.666L4.46606 34.3794C4.46606 34.3486 4.46606 34.3333 4.45839 34.3256C4.45076 34.318 4.43555 34.318 4.40523 34.318C1.30273 30.2048 -0.2181 25.1093 0.0252326 19.9524C0.816065 8.77903 9.88022 0 20.7085 0Z" fill="#1D6FF2"/>
<path fill-rule="evenodd" clip-rule="evenodd" d="M19.1578 8.45703L11.8711 11.0996V33.4407L19.1578 30.7979V8.45703Z" fill="white"/>
<path fill-rule="evenodd" clip-rule="evenodd" d="M21.1426 17.1601L21.1625 25.3781V31.3189L29.5424 34.0994V25.8472L24.6737 24.2042L29.5424 22.5765V14.3042L21.1426 17.1601Z" fill="white"/>
</svg>
