<?xml version="1.0" standalone="no"?>
<!DOCTYPE svg PUBLIC "-//W3C//DTD SVG 20010904//EN"
 "http://www.w3.org/TR/2001/REC-SVG-20010904/DTD/svg10.dtd">
<svg version="1.0" xmlns="http://www.w3.org/2000/svg"
 width="96.000000pt" height="96.000000pt" viewBox="0 0 96.000000 96.000000"
 preserveAspectRatio="xMidYMid meet">
<metadata>
Created by potrace 1.14, written by Peter Selinger 2001-2017
</metadata>
<g transform="translate(0.000000,96.000000) scale(0.100000,-0.100000)"
fill="#000000" stroke="none">
<path d="M303 883 l-123 -46 0 -392 0 -393 128 47 127 47 0 392 c0 216 -2 392
-5 391 -3 0 -60 -21 -127 -46z"/>
<path d="M640 672 l-135 -47 0 -243 c0 -134 2 -247 5 -252 4 -7 98 -39 248
-86 l43 -13 -3 146 -3 145 -77 26 c-43 15 -74 29 -70 33 4 3 40 17 80 29 l72
24 0 143 c0 108 -3 143 -12 142 -7 0 -74 -21 -148 -47z"/>
</g>
</svg>
